<?xml version="1.0" standalone="no"?>
<!DOCTYPE svg PUBLIC "-//W3C//DTD SVG 20010904//EN"
 "http://www.w3.org/TR/2001/REC-SVG-20010904/DTD/svg10.dtd">
<svg version="1.0" xmlns="http://www.w3.org/2000/svg"
 width="419.000000pt" height="419.000000pt" viewBox="0 0 419.000000 419.000000"
 preserveAspectRatio="xMidYMid meet">
<metadata>
Created by potrace 1.14, written by Peter Selinger 2001-2017
</metadata>
<g transform="translate(0.000000,419.000000) scale(0.100000,-0.100000)"
fill="#000000" stroke="none">
<path d="M422 4019 c-153 -26 -282 -155 -311 -313 -15 -81 -15 -3144 -1 -3235
27 -163 152 -290 314 -320 81 -15 3184 -15 3275 -1 71 12 144 45 194 90 19 16
40 30 46 30 6 0 11 6 11 13 0 7 13 38 29 68 16 30 34 81 40 113 15 81 15 3144
1 3235 -27 163 -152 290 -314 320 -73 14 -3203 13 -3284 0z m3442 -191 c11
-18 15 -95 20 -368 7 -379 9 -416 19 -426 4 -4 4 -25 0 -46 -10 -64 -10 -82 0
-95 6 -8 6 -13 0 -13 -7 0 -10 -63 -9 -167 1 -153 3 -168 19 -167 15 2 17 -12
17 -157 0 -118 -3 -158 -12 -156 -7 1 -15 -15 -20 -38 -9 -51 -13 -504 -3
-513 3 -4 12 -7 18 -7 9 0 13 -87 15 -333 1 -219 -1 -332 -8 -332 -5 0 -10 6
-11 13 0 6 -5 1 -11 -13 -6 -14 -13 -101 -15 -195 -6 -171 6 -302 27 -315 19
-12 20 -66 2 -87 -9 -10 -24 -32 -32 -48 -15 -28 -20 -30 -92 -35 -43 -3 -80
-9 -84 -13 -4 -4 2 -7 14 -7 29 0 28 -26 0 -34 -13 -3 -25 -5 -27 -5 -2 0 -8
-5 -13 -13 -6 -8 -7 -2 -3 19 5 25 2 34 -14 42 -14 8 -525 11 -1695 11 l-1676
0 -1 98 c-1 53 -2 143 -3 199 -1 84 -4 103 -16 104 -10 0 -8 3 5 9 l20 9 -20
1 c-17 1 -18 2 -3 8 15 7 17 64 14 792 -2 432 -4 793 -5 803 -1 12 -8 17 -17
13 -8 -3 -14 1 -14 9 0 8 5 15 11 15 8 0 8 4 0 14 -16 20 -15 577 2 573 7 -1
10 10 8 32 -2 22 1 31 8 27 8 -5 11 110 11 403 l0 411 1780 0 1780 0 14 -22z"/>
<path d="M2254 3471 c-26 -11 -84 -66 -84 -80 0 -20 -27 -25 -146 -27 -153 -2
-217 -22 -340 -105 -41 -28 -215 -211 -225 -238 -4 -9 -18 -29 -33 -44 -14
-15 -26 -30 -26 -33 0 -3 -11 -20 -25 -38 -14 -18 -25 -39 -25 -46 0 -7 -8
-22 -17 -33 -16 -17 -18 -43 -18 -223 0 -139 4 -207 11 -212 6 -4 19 -23 29
-42 10 -19 25 -43 34 -53 9 -10 43 -48 76 -85 83 -93 189 -147 320 -163 138
-17 155 -24 155 -68 0 -14 -9 -50 -20 -79 -11 -29 -20 -72 -20 -97 0 -24 -6
-64 -14 -87 -8 -24 -16 -67 -20 -97 -7 -66 -19 -81 -66 -81 -25 0 -45 -8 -62
-22 -13 -13 -44 -36 -69 -52 -24 -16 -56 -37 -71 -48 -15 -10 -30 -18 -34 -18
-4 0 -50 -29 -103 -64 -90 -61 -229 -192 -269 -255 -9 -14 -36 -53 -60 -86
-74 -101 -75 -95 21 -95 77 0 85 2 94 23 52 110 247 302 389 381 41 23 64 37
101 63 17 13 41 23 52 23 23 0 23 -9 24 -392 l0 -98 79 0 78 0 2 108 c0 59 1
141 2 182 1 58 4 75 16 78 19 3 130 -172 130 -205 0 -12 11 -46 24 -75 14 -29
27 -61 30 -71 5 -14 18 -17 90 -17 l85 0 -21 48 c-11 26 -24 52 -29 58 -5 6
-17 37 -28 70 -35 110 -149 271 -247 350 -38 30 -38 31 -27 70 19 62 63 296
63 335 1 19 7 45 15 59 8 14 14 46 15 72 0 26 5 50 11 54 7 4 44 11 83 15 136
17 191 26 251 44 182 55 308 104 353 139 35 27 129 126 139 148 75 154 102
292 83 425 -7 46 -16 85 -20 88 -5 3 -12 31 -16 63 -7 59 -58 187 -102 257
-41 65 -147 158 -227 201 -41 21 -92 48 -112 59 -30 15 -61 20 -148 22 -60 1
-120 -1 -131 -6z m170 -93 c22 -6 50 -18 61 -25 11 -7 25 -13 33 -13 31 0 189
-135 216 -185 9 -16 20 -37 25 -45 5 -8 13 -26 18 -40 6 -14 18 -43 28 -65 9
-22 19 -53 22 -70 2 -16 13 -70 24 -120 19 -87 22 -165 7 -165 -5 0 -8 -20 -8
-45 0 -24 -9 -68 -21 -97 -12 -29 -22 -59 -23 -66 -5 -28 -89 -133 -129 -159
-50 -34 -165 -79 -277 -109 -120 -33 -200 -43 -335 -43 -185 0 -294 17 -370
57 -57 30 -125 85 -125 100 0 4 -14 23 -31 42 -66 74 -74 108 -73 284 l2 159
36 71 c20 39 50 87 66 106 17 19 30 39 30 44 0 14 216 223 239 231 12 3 19 9
17 13 -2 4 6 8 17 8 12 1 40 7 62 13 52 14 119 14 203 -1 60 -10 71 -9 95 6
15 10 27 26 27 36 0 17 22 41 50 54 8 4 26 13 40 21 30 18 24 18 74 3z"/>
<path d="M1710 2971 c-19 -5 -25 -13 -25 -36 0 -25 5 -31 34 -39 26 -7 40 -6
67 9 40 21 43 37 12 54 -31 15 -58 19 -88 12z"/>
<path d="M2182 2968 c-16 -16 -15 -43 2 -57 21 -18 78 -24 109 -12 67 26 34
81 -48 81 -28 0 -56 -5 -63 -12z"/>
<path d="M1753 2608 c-39 -19 -28 -51 35 -109 31 -28 73 -59 92 -67 88 -37
233 -31 300 12 19 13 47 30 62 39 14 9 29 25 33 36 9 29 -12 61 -39 61 -28 0
-83 -26 -113 -53 -18 -16 -41 -21 -102 -25 -80 -4 -80 -4 -133 34 -29 21 -55
42 -56 47 -7 15 -34 37 -45 36 -7 0 -22 -5 -34 -11z"/>
<path d="M2068 943 c7 -3 16 -2 19 1 4 3 -2 6 -13 5 -11 0 -14 -3 -6 -6z"/>
</g>
</svg>
